<svg xmlns="http://www.w3.org/2000/svg" xmlns:xlink="http://www.w3.org/1999/xlink" width="240" zoomAndPan="magnify" viewBox="0 0 180 60" height="80" preserveAspectRatio="xMidYMid meet" version="1.2"><defs><clipPath id="8137701258"><path d="M 4.28125 18 L 27 18 L 27 34 L 4.28125 34 Z M 4.28125 18 "/></clipPath><clipPath id="1da5cff98f"><path d="M 4.28125 23.828125 L 28.28125 23.828125 L 28.28125 41.640625 L 4.28125 41.640625 Z M 4.28125 23.828125 "/></clipPath><clipPath id="18a84da7cd"><path d="M 161.957031 21.070312 L 173.957031 21.070312 L 173.957031 26.320312 L 161.957031 26.320312 Z M 161.957031 21.070312 "/></clipPath></defs><g id="5d69e9e9d8"><g style="fill:#ffffff;fill-opacity:1;"><g transform="translate(34.636657, 37.875)"><path style="stroke:none" d="M 0.390625 -14.171875 L 0.390625 -16.890625 L 13.234375 -16.890625 L 13.234375 -14.171875 L 8.296875 -14.171875 L 8.296875 0 L 5.34375 0 L 5.34375 -14.171875 Z M 0.390625 -14.171875 "/></g></g><g style="fill:#ffffff;fill-opacity:1;"><g transform="translate(48.271193, 37.875)"><path style="stroke:none" d="M 4.28125 0 L 1.453125 0 L 1.453125 -17.1875 L 4.296875 -17.1875 L 4.296875 -9.9375 C 4.648438 -10.488281 5.148438 -10.929688 5.796875 -11.265625 C 6.441406 -11.597656 7.175781 -11.765625 8 -11.765625 C 9.414062 -11.765625 10.484375 -11.34375 11.203125 -10.5 C 11.929688 -9.664062 12.296875 -8.507812 12.296875 -7.03125 L 12.296875 0 L 9.46875 0 L 9.46875 -6.359375 C 9.46875 -7.304688 9.253906 -8.015625 8.828125 -8.484375 C 8.398438 -8.960938 7.820312 -9.203125 7.09375 -9.203125 C 6.195312 -9.203125 5.503906 -8.921875 5.015625 -8.359375 C 4.523438 -7.804688 4.28125 -7.097656 4.28125 -6.234375 Z M 4.28125 0 "/></g></g><g style="fill:#ffffff;fill-opacity:1;"><g transform="translate(61.882613, 37.875)"><path style="stroke:none" d="M 6.5625 0.296875 C 5.4375 0.296875 4.4375 0.046875 3.5625 -0.453125 C 2.695312 -0.960938 2.015625 -1.671875 1.515625 -2.578125 C 1.023438 -3.492188 0.78125 -4.535156 0.78125 -5.703125 C 0.78125 -6.910156 1.019531 -7.96875 1.5 -8.875 C 1.988281 -9.78125 2.660156 -10.488281 3.515625 -11 C 4.378906 -11.507812 5.363281 -11.765625 6.46875 -11.765625 C 7.613281 -11.765625 8.601562 -11.523438 9.4375 -11.046875 C 10.28125 -10.566406 10.925781 -9.890625 11.375 -9.015625 C 11.832031 -8.140625 12.0625 -7.109375 12.0625 -5.921875 L 12.0625 -5.0625 L 3.46875 -5.03125 C 3.6875 -3.019531 4.734375 -2.015625 6.609375 -2.015625 C 8.191406 -2.015625 9.15625 -2.578125 9.5 -3.703125 L 12.109375 -3.703125 C 11.859375 -2.453125 11.242188 -1.472656 10.265625 -0.765625 C 9.296875 -0.0546875 8.0625 0.296875 6.5625 0.296875 Z M 6.5 -9.453125 C 4.800781 -9.453125 3.8125 -8.582031 3.53125 -6.84375 L 9.265625 -6.84375 C 9.265625 -7.625 9.015625 -8.253906 8.515625 -8.734375 C 8.015625 -9.210938 7.34375 -9.453125 6.5 -9.453125 Z M 6.5 -9.453125 "/></g></g><g style="fill:#dc2626;fill-opacity:1;"><g transform="translate(74.761656, 37.875)"><path style="stroke:none" d="M 11.109375 -6.90625 L 4.828125 -6.90625 L 4.828125 0 L 1.875 0 L 1.875 -16.890625 L 12.3125 -16.890625 L 12.3125 -14.171875 L 4.828125 -14.171875 L 4.828125 -9.5625 L 11.109375 -9.5625 Z M 11.109375 -6.90625 "/></g></g><g style="fill:#dc2626;fill-opacity:1;"><g transform="translate(87.864671, 37.875)"><path style="stroke:none" d="M 2.859375 -13.703125 C 2.390625 -13.703125 1.984375 -13.867188 1.640625 -14.203125 C 1.296875 -14.535156 1.125 -14.9375 1.125 -15.40625 C 1.125 -15.882812 1.296875 -16.285156 1.640625 -16.609375 C 1.984375 -16.929688 2.390625 -17.09375 2.859375 -17.09375 C 3.328125 -17.09375 3.722656 -16.929688 4.046875 -16.609375 C 4.378906 -16.285156 4.546875 -15.882812 4.546875 -15.40625 C 4.546875 -14.9375 4.378906 -14.535156 4.046875 -14.203125 C 3.722656 -13.867188 3.328125 -13.703125 2.859375 -13.703125 Z M 1.453125 0 L 1.453125 -11.421875 L 4.28125 -11.421875 L 4.28125 0 Z M 1.453125 0 "/></g></g><g style="fill:#dc2626;fill-opacity:1;"><g transform="translate(93.595792, 37.875)"><path style="stroke:none" d="M 4.28125 0 L 1.453125 0 L 1.453125 -11.421875 L 4.0625 -11.421875 L 4.296875 -9.9375 C 4.648438 -10.519531 5.15625 -10.96875 5.8125 -11.28125 C 6.46875 -11.601562 7.179688 -11.765625 7.953125 -11.765625 C 9.378906 -11.765625 10.457031 -11.34375 11.1875 -10.5 C 11.925781 -9.664062 12.296875 -8.507812 12.296875 -7.03125 L 12.296875 0 L 9.46875 0 L 9.46875 -6.359375 C 9.46875 -7.304688 9.25 -8.015625 8.8125 -8.484375 C 8.375 -8.960938 7.796875 -9.203125 7.078125 -9.203125 C 6.210938 -9.203125 5.53125 -8.921875 5.03125 -8.359375 C 4.53125 -7.804688 4.28125 -7.066406 4.28125 -6.140625 Z M 4.28125 0 "/></g></g><g style="fill:#dc2626;fill-opacity:1;"><g transform="translate(107.207211, 37.875)"><path style="stroke:none" d="M 4.859375 0.296875 C 3.640625 0.296875 2.679688 -0.0234375 1.984375 -0.671875 C 1.296875 -1.316406 0.953125 -2.179688 0.953125 -3.265625 C 0.953125 -4.304688 1.316406 -5.140625 2.046875 -5.765625 C 2.773438 -6.398438 3.816406 -6.773438 5.171875 -6.890625 L 8.59375 -7.140625 L 8.59375 -7.390625 C 8.59375 -8.160156 8.378906 -8.710938 7.953125 -9.046875 C 7.535156 -9.390625 6.960938 -9.5625 6.234375 -9.5625 C 5.398438 -9.5625 4.757812 -9.394531 4.3125 -9.0625 C 3.875 -8.738281 3.65625 -8.273438 3.65625 -7.671875 L 1.25 -7.671875 C 1.25 -8.898438 1.71875 -9.890625 2.65625 -10.640625 C 3.59375 -11.390625 4.832031 -11.765625 6.375 -11.765625 C 7.914062 -11.765625 9.128906 -11.351562 10.015625 -10.53125 C 10.898438 -9.71875 11.34375 -8.519531 11.34375 -6.9375 L 11.34375 0 L 8.875 0 L 8.671875 -1.6875 C 8.421875 -1.101562 7.941406 -0.625 7.234375 -0.25 C 6.535156 0.113281 5.742188 0.296875 4.859375 0.296875 Z M 5.78125 -1.828125 C 6.644531 -1.828125 7.332031 -2.070312 7.84375 -2.5625 C 8.363281 -3.050781 8.625 -3.738281 8.625 -4.625 L 8.625 -5.21875 L 6.234375 -5.03125 C 5.359375 -4.957031 4.734375 -4.773438 4.359375 -4.484375 C 3.992188 -4.203125 3.8125 -3.832031 3.8125 -3.375 C 3.8125 -2.34375 4.46875 -1.828125 5.78125 -1.828125 Z M 5.78125 -1.828125 "/></g></g><g style="fill:#dc2626;fill-opacity:1;"><g transform="translate(119.871151, 37.875)"><path style="stroke:none" d="M 4.28125 0 L 1.453125 0 L 1.453125 -11.421875 L 4.0625 -11.421875 L 4.296875 -9.9375 C 4.648438 -10.519531 5.15625 -10.96875 5.8125 -11.28125 C 6.46875 -11.601562 7.179688 -11.765625 7.953125 -11.765625 C 9.378906 -11.765625 10.457031 -11.34375 11.1875 -10.5 C 11.925781 -9.664062 12.296875 -8.507812 12.296875 -7.03125 L 12.296875 0 L 9.46875 0 L 9.46875 -6.359375 C 9.46875 -7.304688 9.25 -8.015625 8.8125 -8.484375 C 8.375 -8.960938 7.796875 -9.203125 7.078125 -9.203125 C 6.210938 -9.203125 5.53125 -8.921875 5.03125 -8.359375 C 4.53125 -7.804688 4.28125 -7.066406 4.28125 -6.140625 Z M 4.28125 0 "/></g></g><g style="fill:#dc2626;fill-opacity:1;"><g transform="translate(133.482571, 37.875)"><path style="stroke:none" d="M 0.78125 -5.734375 C 0.78125 -6.921875 1.019531 -7.960938 1.5 -8.859375 C 1.988281 -9.765625 2.660156 -10.472656 3.515625 -10.984375 C 4.378906 -11.503906 5.375 -11.765625 6.5 -11.765625 C 8.050781 -11.765625 9.320312 -11.359375 10.3125 -10.546875 C 11.3125 -9.742188 11.890625 -8.65625 12.046875 -7.28125 L 9.21875 -7.28125 C 9.0625 -7.925781 8.753906 -8.414062 8.296875 -8.75 C 7.847656 -9.082031 7.285156 -9.25 6.609375 -9.25 C 5.710938 -9.25 4.988281 -8.929688 4.4375 -8.296875 C 3.882812 -7.660156 3.609375 -6.804688 3.609375 -5.734375 C 3.609375 -4.648438 3.867188 -3.796875 4.390625 -3.171875 C 4.910156 -2.546875 5.617188 -2.234375 6.515625 -2.234375 C 7.222656 -2.234375 7.8125 -2.40625 8.28125 -2.75 C 8.75 -3.09375 9.0625 -3.570312 9.21875 -4.1875 L 12.0625 -4.1875 C 11.957031 -3.289062 11.65625 -2.503906 11.15625 -1.828125 C 10.65625 -1.160156 10.003906 -0.640625 9.203125 -0.265625 C 8.410156 0.109375 7.515625 0.296875 6.515625 0.296875 C 5.359375 0.296875 4.351562 0.046875 3.5 -0.453125 C 2.644531 -0.953125 1.976562 -1.65625 1.5 -2.5625 C 1.019531 -3.46875 0.78125 -4.523438 0.78125 -5.734375 Z M 0.78125 -5.734375 "/></g></g><g style="fill:#dc2626;fill-opacity:1;"><g transform="translate(146.192722, 37.875)"><path style="stroke:none" d="M 6.5625 0.296875 C 5.4375 0.296875 4.4375 0.046875 3.5625 -0.453125 C 2.695312 -0.960938 2.015625 -1.671875 1.515625 -2.578125 C 1.023438 -3.492188 0.78125 -4.535156 0.78125 -5.703125 C 0.78125 -6.910156 1.019531 -7.96875 1.5 -8.875 C 1.988281 -9.78125 2.660156 -10.488281 3.515625 -11 C 4.378906 -11.507812 5.363281 -11.765625 6.46875 -11.765625 C 7.613281 -11.765625 8.601562 -11.523438 9.4375 -11.046875 C 10.28125 -10.566406 10.925781 -9.890625 11.375 -9.015625 C 11.832031 -8.140625 12.0625 -7.109375 12.0625 -5.921875 L 12.0625 -5.0625 L 3.46875 -5.03125 C 3.6875 -3.019531 4.734375 -2.015625 6.609375 -2.015625 C 8.191406 -2.015625 9.15625 -2.578125 9.5 -3.703125 L 12.109375 -3.703125 C 11.859375 -2.453125 11.242188 -1.472656 10.265625 -0.765625 C 9.296875 -0.0546875 8.0625 0.296875 6.5625 0.296875 Z M 6.5 -9.453125 C 4.800781 -9.453125 3.8125 -8.582031 3.53125 -6.84375 L 9.265625 -6.84375 C 9.265625 -7.625 9.015625 -8.253906 8.515625 -8.734375 C 8.015625 -9.210938 7.34375 -9.453125 6.5 -9.453125 Z M 6.5 -9.453125 "/></g></g><g clip-rule="nonzero" clip-path="url(#8137701258)"><path style=" stroke:none;fill-rule:nonzero;fill:#ff3131;fill-opacity:1;" d="M 6.460938 30.316406 L 8.015625 30.316406 L 10.726562 33.082031 L 14.144531 26.40625 L 15.914062 26.40625 L 18.980469 32.78125 L 23.332031 26.234375 L 21.800781 25.21875 L 26.15625 23.058594 C 24.019531 20 20.476562 18.003906 16.464844 18.003906 C 9.933594 18.003906 4.644531 23.292969 4.644531 29.820312 C 4.644531 30.535156 4.707031 31.238281 4.832031 31.917969 L 6.460938 30.316406 "/></g><g clip-rule="nonzero" clip-path="url(#1da5cff98f)"><path style=" stroke:none;fill-rule:nonzero;fill:#dc2626;fill-opacity:1;" d="M 26.671875 23.863281 L 26.394531 28.269531 L 24.867188 27.253906 L 19.695312 35.039062 L 18.023438 35.039062 L 15.003906 28.765625 L 11.8125 35.039062 L 10.066406 35.039062 L 7.226562 32.144531 L 4.28125 35.039062 L 5.59375 34.464844 C 7.398438 38.683594 11.585938 41.640625 16.464844 41.640625 C 22.992188 41.640625 28.28125 36.347656 28.28125 29.820312 C 28.28125 27.648438 27.695312 25.613281 26.671875 23.863281 "/></g><g clip-rule="nonzero" clip-path="url(#18a84da7cd)"><path style=" stroke:none;fill-rule:nonzero;fill:#dc2626;fill-opacity:1;" d="M 173.945312 26.144531 L 161.96875 26.144531 L 161.96875 21.070312 L 173.945312 21.070312 L 173.945312 26.144531 "/></g><path style=" stroke:none;fill-rule:nonzero;fill:#ffffff;fill-opacity:1;" d="M 171.589844 23.691406 L 170.175781 23.691406 L 170.175781 24.542969 L 171.734375 24.542969 L 171.691406 24.839844 L 169.84375 24.839844 L 169.84375 22.375 L 171.664062 22.375 L 171.664062 22.667969 L 170.175781 22.667969 L 170.175781 23.398438 L 171.589844 23.398438 Z M 168.054688 24.839844 L 167.023438 22.375 L 167.390625 22.375 L 167.925781 23.6875 C 168.125 24.175781 168.203125 24.398438 168.246094 24.535156 L 168.253906 24.535156 C 168.289062 24.417969 168.398438 24.15625 168.554688 23.746094 L 169.121094 22.375 L 169.476562 22.375 L 168.429688 24.839844 Z M 166.632812 22.375 L 166.632812 24.839844 L 166.300781 24.839844 L 166.300781 22.375 Z M 164.179688 22.375 L 164.511719 22.375 L 164.511719 24.542969 L 165.933594 24.542969 L 165.882812 24.839844 L 164.179688 24.839844 L 164.179688 22.375 "/></g></svg>